HIERARCHY
ROOT Hips
{
	OFFSET 0.000000 0.000000 0.000000
	CHANNELS 6 Xposition Yposition Zposition Zrotation Yrotation Xrotation
	JOINT LHipJoint
	{
		OFFSET 0.000000 0.000000 0.000000
		CHANNELS 3 Zrotation Yrotation Xrotation
		JOINT LeftUpLeg
		{
			OFFSET 1.363060 -1.794630 0.839290
			CHANNELS 3 Zrotation Yrotation Xrotation
			JOINT LeftLeg
			{
				OFFSET 2.448110 -6.726130 0.000000
				CHANNELS 3 Zrotation Yrotation Xrotation
				JOINT LeftFoot
				{
					OFFSET 2.562200 -7.039590 0.000000
					CHANNELS 3 Zrotation Yrotation Xrotation
					JOINT LeftToeBase
					{
						OFFSET 0.157640 -0.433110 2.322550
						CHANNELS 3 Zrotation Yrotation Xrotation
						End Site
						{
							OFFSET 0.000000 0.000000 0.000000
						}
					}
				}
			}
		}
	}
	JOINT RHipJoint
	{
		OFFSET 0.000000 0.000000 0.000000
		CHANNELS 3 Zrotation Yrotation Xrotation
		JOINT RightUpLeg
		{
			OFFSET -1.305520 -1.794630 0.839290
			CHANNELS 3 Zrotation Yrotation Xrotation
			JOINT RightLeg
			{
				OFFSET -2.542530 -6.985550 0.000000
				CHANNELS 3 Zrotation Yrotation Xrotation
				JOINT RightFoot
				{
					OFFSET -2.568260 -7.056230 0.000000
					CHANNELS 3 Zrotation Yrotation Xrotation
					JOINT RightToeBase
					{
						OFFSET -0.164730 -0.452590 2.363150
						CHANNELS 3 Zrotation Yrotation Xrotation
						End Site
						{
							OFFSET 0.000000 0.000000 0.000000
						}
					}
				}
			}
		}
	}
	JOINT LowerBack
	{
		OFFSET 0.000000 0.000000 0.000000
		CHANNELS 3 Zrotation Yrotation Xrotation
		JOINT Spine
		{
			OFFSET 0.028270 2.035590 -0.193380
			CHANNELS 3 Zrotation Yrotation Xrotation
			JOINT Spine1
			{
				OFFSET 0.056720 2.048850 -0.042750
				CHANNELS 3 Zrotation Yrotation Xrotation
				JOINT Neck
				{
					OFFSET 0.000000 0.000000 0.000000
					CHANNELS 3 Zrotation Yrotation Xrotation
					JOINT Neck1
					{
						OFFSET -0.054170 1.746240 0.172020
						CHANNELS 3 Zrotation Yrotation Xrotation
						JOINT Head
						{
							OFFSET 0.104070 1.761360 -0.123970
							CHANNELS 3 Zrotation Yrotation Xrotation
							End Site
							{
								OFFSET 0.000000 0.000000 0.000000
							}
						}
					}
				}
				JOINT LeftShoulder
				{
					OFFSET 0.000000 0.000000 0.000000
					CHANNELS 3 Zrotation Yrotation Xrotation
					JOINT LeftArm
					{
						OFFSET 3.362410 1.200890 -0.311210
						CHANNELS 3 Zrotation Yrotation Xrotation
						JOINT LeftForeArm
						{
							OFFSET 4.983000 -0.000000 -0.000000
							CHANNELS 3 Zrotation Yrotation Xrotation
							JOINT LeftHand
							{
								OFFSET 3.483560 -0.000000 -0.000000
								CHANNELS 3 Zrotation Yrotation Xrotation
								JOINT LeftFingerBase
								{
									OFFSET 0.000000 0.000000 0.000000
									CHANNELS 3 Zrotation Yrotation Xrotation
									JOINT LeftHandIndex1
									{
										OFFSET 0.715260 -0.000000 -0.000000
										CHANNELS 3 Zrotation Yrotation Xrotation
										End Site
										{
											OFFSET 0.000000 0.000000 0.000000
										}
									}
								}
								JOINT LThumb
								{
									OFFSET 0.000000 0.000000 0.000000
									CHANNELS 3 Zrotation Yrotation Xrotation
									End Site
									{
										OFFSET 0.000000 0.000000 0.000000
									}
								}
							}
						}
					}
				}
				JOINT RightShoulder
				{
					OFFSET 0.000000 0.000000 0.000000
					CHANNELS 3 Zrotation Yrotation Xrotation
					JOINT RightArm
					{
						OFFSET -3.136600 1.374050 -0.404650
						CHANNELS 3 Zrotation Yrotation Xrotation
						JOINT RightForeArm
						{
							OFFSET -5.241900 -0.000000 -0.000000
							CHANNELS 3 Zrotation Yrotation Xrotation
							JOINT RightHand
							{
								OFFSET -3.444170 -0.000000 -0.000000
								CHANNELS 3 Zrotation Yrotation Xrotation
								JOINT RightFingerBase
								{
									OFFSET 0.000000 0.000000 0.000000
									CHANNELS 3 Zrotation Yrotation Xrotation
									JOINT RightHandIndex1
									{
										OFFSET -0.622530 -0.000000 -0.000000
										CHANNELS 3 Zrotation Yrotation Xrotation
										End Site
										{
											OFFSET 0.000000 0.000000 0.000000
										}
									}
								}
								JOINT RThumb
								{
									OFFSET 0.000000 0.000000 0.000000
									CHANNELS 3 Zrotation Yrotation Xrotation
									End Site
									{
										OFFSET 0.000000 0.000000 0.000000
									}
								}
							}
						}
					}
				}
			}
		}
	}
}
MOTION
Frames: 13
Frame Time: 0.008333
0.002129 0.001622 0.124827 0.205842 0.295436 -0.095994 0.010546 0.034934 0.049808 -0.234242 -0.353516 0.115443 0.144064 0.230207 0.736074 0.029594 -0.445360 -0.314157 -0.136735 0.449116 1.303708 -0.033256 0.021218 -0.049784 -0.119768 -0.030808 -0.481012 -0.257875 -0.414191 1.361548 -0.049053 -0.961753 1.663884 0.005012 -0.036973 0.102693 -0.292879 -0.106371 0.213755 -0.025517 -0.095913 -0.039094 0.055991 -0.043356 -0.159017 -0.119872 -0.048879 -0.078914 0.198670 -0.085116 0.191546 0.052576 -0.025957 -0.105151 -0.019706 -0.026286 -0.017256 0.078113 -0.028481 0.635343 0.033080 -0.086089 -0.013038 0.013051 -0.005755 -0.555305 -0.119758 0.111199 0.055838 0.000000 0.000000 0.000000 -0.082126 0.109785 0.037824 0.002710 0.025544 0.016636 0.102527 -0.788708 -0.415328 -0.464846 0.213972 -0.317428 0.014534 -0.014913 -0.674323 0.097141 -1.195289 0.333894 -0.000000 0.000000 0.000000 0.970334 -1.142577 -0.748306
-0.100524 -0.052509 -1.688347 0.158404 -0.111850 -0.423181 -0.262927 -0.178667 -0.135457 -0.831335 -0.830311 -0.650649 -0.196064 -0.268951 -0.763213 0.308964 -0.687279 0.126386 -0.073109 -0.063669 3.088009 -0.041754 0.079279 0.079443 -0.272339 0.175703 0.073729 -0.383063 -0.175618 1.472217 -0.049259 0.045386 2.215562 0.008450 0.051763 1.504393 -0.332203 0.010995 0.202714 0.069153 0.066950 0.143928 0.113327 -0.095641 0.160417 -0.023064 0.072841 -0.212782 0.375414 -0.160634 0.300761 0.239498 -0.052710 -0.040907 0.069497 0.086491 -0.003762 0.869473 0.396036 0.346496 0.355589 0.325241 0.106713 0.027511 0.108208 0.528289 0.471568 1.064274 0.171295 0.028204 0.000000 0.000000 1.162605 1.911874 1.782532 0.242781 0.190112 0.075219 1.223316 -0.300640 0.050655 -0.071828 0.778610 -0.100127 0.076064 0.036196 -0.252995 2.993715 0.517950 2.728303 0.084687 0.000000 0.000000 3.206147 0.104825 4.740828
0.118065 0.200554 -2.892138 0.313149 -0.413245 -0.645453 -0.392027 -0.313379 -0.168169 -0.850410 -0.969161 -0.567769 -0.619040 -0.664233 -2.187427 0.382129 -1.242714 -0.279044 -0.124818 -0.571848 4.332886 -0.095372 0.128685 0.084981 -0.653285 0.155195 0.258596 -0.442099 0.048763 1.243923 -0.067923 0.575555 2.673318 -0.027736 -0.031603 1.586554 -0.526623 0.066982 -0.099034 0.092601 0.153947 0.219799 0.099917 -0.132509 0.471280 -0.045855 0.127643 -0.356983 0.519486 -0.201210 0.427304 0.419395 -0.067186 -0.006294 0.102944 0.124074 -0.012861 1.003489 0.502729 -0.899929 0.321242 0.374701 0.129864 0.003222 0.115464 0.717919 0.535072 1.563639 0.227593 0.002473 0.000000 0.000000 0.963023 1.957041 2.131298 0.259666 0.164788 0.075968 1.438922 -0.122222 0.146439 -0.178307 0.843991 -0.270142 0.084643 0.037946 -0.292982 2.429143 0.566134 2.626168 0.095897 0.000000 0.000000 2.168237 -0.522852 5.085759
0.475460 0.591205 -4.211208 0.434811 -0.744464 -0.705093 -0.317265 -0.362854 -0.118977 -0.730114 -1.044871 -0.247544 -1.014451 -1.049274 -3.874346 0.445480 -1.505185 -0.232842 -0.034537 -0.883252 5.584387 -0.069033 0.163013 0.156266 -0.772968 0.367671 1.011795 -0.412338 0.405746 1.450417 -0.000509 1.513318 3.779505 -0.026493 -0.064654 1.854209 -0.623889 0.163598 -0.263577 0.121232 0.259968 0.415124 0.148524 -0.170511 0.735926 -0.005167 0.131821 -0.539351 0.656766 -0.313545 0.464922 0.634497 -0.049339 0.002192 0.169324 0.204370 -0.014726 1.262410 0.641558 -2.101401 0.280300 0.419514 0.149116 -0.026894 0.104873 0.478105 0.260451 1.623589 0.052163 -0.059182 0.000000 0.000000 0.480439 1.665941 2.288483 0.230959 0.095037 0.059759 1.344398 -0.038174 0.128723 -0.349146 0.873409 -0.444838 0.096622 0.041900 -0.312307 1.887996 0.564096 2.327083 0.096453 0.000000 0.000000 1.091466 -1.160887 5.306047
0.689157 0.849457 -5.517213 0.946835 -0.990923 -0.609229 -0.103941 -0.394444 -0.025877 -0.705683 -1.256838 -0.163707 -1.515209 -1.307696 -4.447852 0.311876 -0.802738 -0.260759 -0.036752 -0.847364 5.254191 -0.205595 0.165468 0.115775 -0.600304 0.113228 0.471559 -0.346277 0.575685 0.731274 -0.047311 1.411588 2.743078 0.018538 0.221618 1.144991 -0.519834 0.283148 -0.431608 0.087603 0.346406 0.453406 0.007898 -0.184320 0.818516 -0.121211 0.013531 -0.504834 0.608501 -0.416257 0.537758 0.625283 -0.052239 -0.005675 0.221957 0.162526 -0.015800 1.266284 0.646748 -2.847396 0.105816 0.510512 0.182945 -0.038632 0.072350 0.172851 -0.081331 1.519523 0.035863 -0.085099 0.000000 0.000000 0.626574 1.710836 2.926249 0.255014 0.044097 0.047094 1.279237 0.074696 0.280339 -0.333048 1.045386 -0.455384 0.116834 0.053111 -0.231966 1.869995 0.614793 2.176847 0.099917 0.000000 0.000000 1.509734 -0.446701 4.770851
1.115693 1.139744 -6.135190 0.982424 -1.551447 -0.490883 0.122210 -0.439541 0.107127 -0.373131 -1.284444 0.120301 -2.027209 -1.560745 -4.649179 0.109441 0.158405 -0.597455 -0.143107 -0.752849 4.313039 -0.299710 0.223150 0.094802 -0.297678 -0.280598 -0.650874 -0.367963 0.563117 -0.377291 -0.103207 1.705066 2.144325 0.152456 0.769326 0.778386 -0.188737 0.445958 -0.515676 0.069303 0.444226 0.477838 -0.187470 -0.200502 0.847783 -0.305580 -0.110865 -0.408580 0.503562 -0.389905 0.762056 0.602936 -0.037487 0.042781 0.290286 0.153346 -0.000432 1.282588 0.620947 -3.332956 -0.171931 0.612506 0.213056 -0.025112 0.042410 0.363999 -0.143441 0.997746 0.194672 -0.100745 0.000000 0.000000 0.770831 1.737508 3.647501 0.330819 0.035459 0.049453 1.428793 0.112291 0.489159 -0.342803 1.173851 -0.303625 0.139833 0.067132 -0.121987 2.728958 0.868391 2.714898 0.120699 0.000000 0.000000 2.544324 0.787857 5.454340
1.399812 1.222251 -7.518146 0.733655 -1.946375 -0.576590 0.150502 -0.641848 -0.013601 -0.401216 -1.673880 0.180639 -2.541890 -2.082257 -5.919637 -0.152404 0.635008 -1.088878 -0.192396 -0.754613 2.962810 -0.601650 0.142368 -0.122760 -0.434393 -0.460454 -0.676100 -0.265849 0.836915 -0.791366 -0.081687 2.584847 2.250407 0.214561 1.019618 0.573656 0.032896 0.531819 -0.833682 -0.025122 0.434251 0.396940 -0.423170 -0.283939 0.723706 -0.421708 -0.203131 -0.404242 0.433207 -0.459975 0.716971 0.556798 -0.051928 0.010337 0.249214 0.108505 -0.004386 1.047574 0.523944 -4.125708 -0.484532 0.689699 0.231373 -0.015496 0.026892 0.282506 -0.310827 -0.052464 0.142164 -0.137631 0.000000 0.000000 0.415376 1.158774 3.934651 0.300306 -0.028802 0.027514 1.286846 -0.000022 0.407734 -0.484980 1.131350 -0.176689 0.157425 0.067157 -0.116980 2.499310 0.905446 2.627132 0.125625 0.000000 0.000000 2.380069 0.921667 6.052022
1.731887 1.368775 -8.714410 0.538174 -2.288613 -0.683506 0.165688 -0.857613 -0.142719 -0.367729 -2.047831 0.346712 -3.030018 -2.558245 -7.092126 -0.365880 1.270787 -1.261992 -0.168866 -0.585597 2.319558 -0.666014 0.127304 -0.190655 -0.031829 -0.387472 -0.089768 -0.100211 1.126236 -1.359802 -0.127429 3.045206 1.948807 0.229035 1.149142 0.429514 0.272816 0.650191 -1.038227 -0.063081 0.502894 0.452376 -0.561528 -0.342033 0.693314 -0.466898 -0.221222 -0.278409 0.437939 -0.447145 0.697491 0.552155 -0.035861 0.041721 0.239885 0.093263 -0.002529 1.017031 0.502964 -4.774820 -0.752743 0.784333 0.253743 -0.009187 0.008240 0.257251 -0.401271 -0.914639 0.188190 -0.158107 0.000000 0.000000 0.374119 0.980660 4.641253 0.318939 -0.058676 0.018903 1.365267 -0.024790 0.443644 -0.537118 1.126547 -0.026042 0.177026 0.068546 -0.085398 2.224531 0.961016 2.557011 0.131361 0.000000 0.000000 2.322689 1.053127 7.097591
2.105150 1.530215 -9.802739 0.261284 -2.397265 -0.515344 0.489731 -0.924014 -0.317199 -0.212843 -2.422498 0.697289 -3.370791 -2.963094 -8.300588 -0.549067 1.811392 -1.473277 -0.097127 -0.416676 1.839633 -0.669142 0.091075 -0.221953 0.089735 -0.542524 0.350318 -0.038779 1.307985 -1.943174 -0.167580 3.431021 1.934675 0.236628 1.144167 0.198542 0.462263 0.745460 -1.277481 -0.087505 0.514419 0.524407 -0.650271 -0.395470 0.627292 -0.497015 -0.283056 -0.408303 0.423732 -0.516293 0.501669 0.496188 -0.038879 0.004003 0.162044 0.075404 -0.011482 0.918163 0.475662 -5.413559 -1.005586 0.903894 0.278543 -0.000985 -0.002183 0.323060 -0.528006 -1.999613 0.088529 -0.195048 0.000000 0.000000 0.333478 0.510437 5.133653 0.277993 -0.118425 -0.002860 1.250484 -0.178920 0.282856 -0.771305 0.974741 0.037497 0.192581 0.060547 -0.124754 1.112438 0.681738 2.036621 0.122223 0.000000 0.000000 1.152177 0.493801 7.822423
2.317158 1.477685 -11.686343 -0.335795 -2.624985 -0.743973 0.483914 -0.981791 -0.508149 0.189285 -2.660850 0.644744 -3.660790 -3.446058 -9.895878 -0.738802 1.997498 -1.950568 -0.028173 -0.307723 1.273248 -0.653497 0.030554 -0.193259 0.044636 -0.677158 1.066564 0.020344 1.560632 -2.362475 -0.193931 3.923584 2.309526 0.262919 1.143019 -0.089055 0.606080 0.823204 -1.541744 -0.114958 0.453132 0.560545 -0.737615 -0.419455 0.620246 -0.399323 -0.287211 -0.416546 0.521310 -0.498364 0.400092 0.459810 0.006470 0.008628 0.132911 0.068052 -0.026343 0.784110 0.438780 -6.251558 -1.319654 0.965813 0.282814 -0.002431 -0.026042 0.328989 -0.687985 -2.858888 0.009688 -0.233010 0.000000 0.000000 0.267970 -0.045613 5.548778 0.235281 -0.170687 -0.021847 1.224028 -0.265726 0.183367 -0.964650 0.851394 0.058695 0.212347 0.055965 -0.128649 0.277365 0.513190 1.900694 0.124123 0.000000 0.000000 0.349886 0.055510 8.362677
2.498457 1.548138 -12.943312 -0.608647 -2.642124 -0.825615 0.575583 -1.030276 -0.724599 0.426939 -3.083873 -0.475192 -3.980845 -3.928315 -11.474292 -0.885166 2.279817 -2.415077 0.059306 -0.145924 0.890582 -0.608552 -0.007892 -0.074214 -0.003920 -0.823015 1.771881 0.083843 1.826451 -2.994962 -0.256166 4.293175 2.483852 0.323453 1.218413 -0.603412 0.802355 0.942416 -1.678906 -0.079772 0.469689 0.652629 -0.807238 -0.407077 0.597497 -0.360070 -0.328644 -0.480563 0.560711 -0.538813 0.237995 0.320171 0.028380 -0.002701 0.078758 0.068521 -0.033588 0.777562 0.446097 -6.951970 -1.577200 1.122214 0.311055 -0.000441 -0.044098 0.584895 -0.767357 -3.337238 0.033592 -0.258281 0.000000 0.000000 0.249948 -0.408372 6.138743 0.231153 -0.202016 -0.039728 1.218445 -0.293878 0.136421 -1.156446 0.753839 0.027137 0.229068 0.049923 -0.137608 -0.356140 0.338267 1.618543 0.121005 0.000000 0.000000 -0.504495 -0.344912 8.282984
2.670695 1.631981 -14.045309 -0.845065 -2.607070 -0.865429 0.675088 -1.091793 -0.944161 0.670327 -3.562375 -1.641077 -4.309116 -4.439154 -13.107567 -1.033903 2.515522 -2.993014 0.140597 -0.000087 0.418406 -0.598733 -0.052829 0.024713 -0.124334 -1.012484 2.431077 0.140462 2.078168 -3.656554 -0.325735 4.646341 2.641123 0.384354 1.300374 -1.132866 0.999122 1.058742 -1.830549 -0.049368 0.481094 0.742523 -0.879102 -0.391573 0.589245 -0.303435 -0.355070 -0.511554 0.608160 -0.563011 0.105356 0.184930 0.052074 -0.022354 0.007936 0.055784 -0.043081 0.684467 0.420570 -7.745554 -1.856345 1.246942 0.329328 -0.001745 -0.068857 0.757746 -0.898607 -3.875185 0.040223 -0.287355 0.000000 0.000000 0.163771 -0.866653 6.625026 0.216308 -0.243192 -0.059966 1.206907 -0.324055 0.081005 -1.349130 0.662299 -0.005369 0.244333 0.042679 -0.156513 -1.064932 0.115598 1.273020 0.116641 0.000000 0.000000 -1.500147 -0.841757 7.947886
2.637742 1.674801 -15.206859 -0.926247 -2.525743 -0.764484 0.872677 -0.985710 -1.076673 0.965702 -4.006186 -2.254251 -4.576005 -4.911286 -14.762944 -1.294185 2.885161 -3.622070 0.220474 0.182656 0.119580 -0.497450 -0.056690 0.128528 -0.122774 -1.166887 3.199997 0.216359 2.362062 -4.277227 -0.393340 5.149129 2.812528 0.460038 1.407333 -1.585366 1.164873 1.176585 -1.969415 -0.030577 0.514797 0.844274 -0.943847 -0.373053 0.629685 -0.238258 -0.364822 -0.451851 0.671502 -0.556665 0.033300 0.034263 0.064998 -0.034811 -0.065060 0.058762 -0.048501 0.736288 0.454007 -8.483969 -2.097550 1.418844 0.360194 0.001302 -0.083036 1.084700 -0.979272 -4.288699 0.080787 -0.307893 0.000000 0.000000 0.053893 -1.218467 7.190971 0.240783 -0.268438 -0.077768 1.286663 -0.354994 -0.020183 -1.565631 0.574187 -0.104846 0.255666 0.032140 -0.192800 -1.822905 -0.126931 0.911963 0.111816 0.000000 0.000000 -2.508775 -1.361002 7.401537
